<svg width="677" height="493" viewBox="0 0 677 493" fill="none" xmlns="http://www.w3.org/2000/svg">
<path d="M677 433.245H0V433.576H677V433.245Z" fill="#EBEBEB"/>
<path d="M609.166 454.541H564.319V454.872H609.166V454.541Z" fill="#EBEBEB"/>
<path d="M448.472 458.133H436.702V458.463H448.472V458.133Z" fill="#EBEBEB"/>
<path d="M562.963 442.255H536.977V442.586H562.963V442.255Z" fill="#EBEBEB"/>
<path d="M129.513 444.478H71.0295V444.809H129.513V444.478Z" fill="#EBEBEB"/>
<path d="M150.144 444.478H141.569V444.809H150.144V444.478Z" fill="#EBEBEB"/>
<path d="M304.849 450.065H178.012V450.396H304.849V450.065Z" fill="#EBEBEB"/>
<path d="M320.917 374.237H59.4609C55.1999 374.237 51.7323 370.849 51.7323 366.685V7.55227C51.7323 3.38847 55.1999 0 59.4609 0H320.917C325.177 0 328.644 3.38847 328.644 7.55227V366.685C328.644 370.849 325.177 374.237 320.917 374.237ZM59.4609 0.332098C55.3854 0.332098 52.0708 3.57105 52.0708 7.55359V366.686C52.0708 370.669 55.3854 373.908 59.4609 373.908H320.917C324.991 373.908 328.306 370.669 328.306 366.686V7.55227C328.306 3.57105 324.991 0.330776 320.917 0.330776L59.4609 0.332098Z" fill="#EBEBEB"/>
<path d="M613.782 374.237H352.327C348.066 374.237 344.6 370.849 344.6 366.685V7.55227C344.6 3.38847 348.067 0 352.327 0H613.782C618.044 0 621.51 3.38847 621.51 7.55227V366.685C621.512 370.849 618.044 374.237 613.782 374.237ZM352.327 0.332098C348.253 0.332098 344.938 3.57105 344.938 7.55359V366.686C344.938 370.669 348.253 373.908 352.327 373.908H613.782C617.857 373.908 621.172 370.669 621.172 366.686V7.55227C621.172 3.57105 617.857 0.330776 613.782 0.330776L352.327 0.332098Z" fill="#EBEBEB"/>
<path d="M275.156 123.718L320.149 98.1409H354.814L400.552 122.506V288.275H275.156V123.718Z" fill="#E0E0E0"/>
<path d="M401.844 288.275H275.157V123.718L276.448 122.506C293.178 106.794 315.217 98.1396 338.5 98.1396C338.499 98.1396 338.501 98.1396 338.5 98.1396C361.783 98.1396 383.821 106.793 400.552 122.506L401.843 123.718L401.844 288.275ZM283.56 280.064H393.44V127.243C378.448 113.759 359.009 106.353 338.5 106.353C317.992 106.353 298.553 113.759 283.56 127.243V280.064Z" fill="#FAFAFA"/>
<path d="M335.349 281.052H341.652V226.037H395.032V219.878H341.652V163.611H395.032V157.452H341.652V105.29H335.349V157.452H281.968V163.611H335.349V219.878H281.968V226.037H335.349V281.052Z" fill="#F0F0F0"/>
<path d="M406.046 292.382H270.954V122.043L272.185 120.84C308.751 85.1096 368.249 85.1096 404.815 120.84L406.046 122.043V292.382ZM279.359 284.169H397.641V125.467C364.674 94.5063 312.326 94.5063 279.359 125.467V284.169Z" fill="#F0F0F0"/>
<path d="M575.728 422.73H546.485V434.026H575.728V422.73Z" fill="#F5F5F5"/>
<path d="M591.629 422.73H578.287V434.026H591.629V422.73Z" fill="#F5F5F5"/>
<path d="M543.926 422.73H514.684V434.026H543.926V422.73Z" fill="#F5F5F5"/>
<path d="M512.126 422.73H482.884V434.026H512.126V422.73Z" fill="#F5F5F5"/>
<path d="M480.325 422.73H451.082V434.026H480.325V422.73Z" fill="#F5F5F5"/>
<path d="M448.523 422.73H419.281V434.026H448.523V422.73Z" fill="#F5F5F5"/>
<path d="M416.723 422.73H387.481V434.026H416.723V422.73Z" fill="#F5F5F5"/>
<path d="M384.922 422.73H355.68V434.026H384.922V422.73Z" fill="#F5F5F5"/>
<path d="M353.122 422.73H323.88V434.026H353.122V422.73Z" fill="#F5F5F5"/>
<path d="M321.32 422.73H292.078V434.026H321.32V422.73Z" fill="#F5F5F5"/>
<path d="M289.519 422.73H260.277V434.026H289.519V422.73Z" fill="#F5F5F5"/>
<path d="M257.719 422.73H228.477V434.026H257.719V422.73Z" fill="#F5F5F5"/>
<path d="M225.918 422.73H196.675V434.026H225.918V422.73Z" fill="#F5F5F5"/>
<path d="M194.118 422.73H164.875V434.026H194.118V422.73Z" fill="#F5F5F5"/>
<path d="M162.316 422.73H133.074V434.026H162.316V422.73Z" fill="#F5F5F5"/>
<path d="M130.515 422.73H101.272V434.026H130.515V422.73Z" fill="#F5F5F5"/>
<path d="M98.7134 422.73H85.3724V434.026H98.7134V422.73Z" fill="#F5F5F5"/>
<path d="M591.628 408.571H562.385V419.868H591.628V408.571Z" fill="#F5F5F5"/>
<path d="M559.828 408.571H530.585V419.868H559.828V408.571Z" fill="#F5F5F5"/>
<path d="M528.026 408.571H498.784V419.868H528.026V408.571Z" fill="#F5F5F5"/>
<path d="M496.225 408.571H466.982V419.868H496.225V408.571Z" fill="#F5F5F5"/>
<path d="M464.425 408.571H435.182V419.868H464.425V408.571Z" fill="#F5F5F5"/>
<path d="M432.623 408.571H403.381V419.868H432.623V408.571Z" fill="#F5F5F5"/>
<path d="M400.823 408.571H371.581V419.868H400.823V408.571Z" fill="#F5F5F5"/>
<path d="M369.022 408.571H339.78V419.868H369.022V408.571Z" fill="#F5F5F5"/>
<path d="M337.221 408.571H307.978V419.868H337.221V408.571Z" fill="#F5F5F5"/>
<path d="M305.42 408.571H276.178V419.868H305.42V408.571Z" fill="#F5F5F5"/>
<path d="M273.619 408.571H244.377V419.868H273.619V408.571Z" fill="#F5F5F5"/>
<path d="M241.818 408.571H212.575V419.868H241.818V408.571Z" fill="#F5F5F5"/>
<path d="M210.018 408.571H180.775V419.868H210.018V408.571Z" fill="#F5F5F5"/>
<path d="M178.216 408.571H148.974V419.868H178.216V408.571Z" fill="#F5F5F5"/>
<path d="M146.415 408.571H117.172V419.868H146.415V408.571Z" fill="#F5F5F5"/>
<path d="M114.615 408.571H85.3724V419.868H114.615V408.571Z" fill="#F5F5F5"/>
<path d="M575.728 394.414H546.485V405.711H575.728V394.414Z" fill="#F5F5F5"/>
<path d="M591.629 394.414H578.287V405.711H591.629V394.414Z" fill="#F5F5F5"/>
<path d="M543.926 394.414H514.684V405.711H543.926V394.414Z" fill="#F5F5F5"/>
<path d="M512.126 394.414H482.884V405.711H512.126V394.414Z" fill="#F5F5F5"/>
<path d="M480.325 394.414H451.082V405.711H480.325V394.414Z" fill="#F5F5F5"/>
<path d="M448.523 394.414H419.281V405.711H448.523V394.414Z" fill="#F5F5F5"/>
<path d="M416.723 394.414H387.481V405.711H416.723V394.414Z" fill="#F5F5F5"/>
<path d="M384.922 394.414H355.68V405.711H384.922V394.414Z" fill="#F5F5F5"/>
<path d="M353.122 394.414H323.88V405.711H353.122V394.414Z" fill="#F5F5F5"/>
<path d="M321.32 394.414H292.078V405.711H321.32V394.414Z" fill="#F5F5F5"/>
<path d="M289.519 394.414H260.277V405.711H289.519V394.414Z" fill="#F5F5F5"/>
<path d="M257.719 394.414H228.477V405.711H257.719V394.414Z" fill="#F5F5F5"/>
<path d="M225.918 394.414H196.675V405.711H225.918V394.414Z" fill="#F5F5F5"/>
<path d="M194.118 394.414H164.875V405.711H194.118V394.414Z" fill="#F5F5F5"/>
<path d="M162.316 394.414H133.074V405.711H162.316V394.414Z" fill="#F5F5F5"/>
<path d="M130.515 394.414H101.272V405.711H130.515V394.414Z" fill="#F5F5F5"/>
<path d="M98.7134 394.414H85.3724V405.711H98.7134V394.414Z" fill="#F5F5F5"/>
<path d="M591.628 380.256H562.385V391.552H591.628V380.256Z" fill="#F5F5F5"/>
<path d="M559.828 380.256H530.585V391.552H559.828V380.256Z" fill="#F5F5F5"/>
<path d="M528.026 380.256H498.784V391.552H528.026V380.256Z" fill="#F5F5F5"/>
<path d="M496.225 380.256H466.982V391.552H496.225V380.256Z" fill="#F5F5F5"/>
<path d="M464.425 380.256H435.182V391.552H464.425V380.256Z" fill="#F5F5F5"/>
<path d="M432.623 380.256H403.381V391.552H432.623V380.256Z" fill="#F5F5F5"/>
<path d="M400.823 380.256H371.581V391.552H400.823V380.256Z" fill="#F5F5F5"/>
<path d="M369.022 380.256H339.78V391.552H369.022V380.256Z" fill="#F5F5F5"/>
<path d="M337.221 380.256H307.978V391.552H337.221V380.256Z" fill="#F5F5F5"/>
<path d="M305.42 380.256H276.178V391.552H305.42V380.256Z" fill="#F5F5F5"/>
<path d="M273.619 380.256H244.377V391.552H273.619V380.256Z" fill="#F5F5F5"/>
<path d="M241.818 380.256H212.575V391.552H241.818V380.256Z" fill="#F5F5F5"/>
<path d="M210.018 380.256H180.775V391.552H210.018V380.256Z" fill="#F5F5F5"/>
<path d="M178.216 380.256H148.974V391.552H178.216V380.256Z" fill="#F5F5F5"/>
<path d="M146.415 380.256H117.172V391.552H146.415V380.256Z" fill="#F5F5F5"/>
<path d="M114.615 380.256H85.3724V391.552H114.615V380.256Z" fill="#F5F5F5"/>
<path d="M575.728 366.098H546.485V377.395H575.728V366.098Z" fill="#F5F5F5"/>
<path d="M591.629 366.098H578.287V377.395H591.629V366.098Z" fill="#F5F5F5"/>
<path d="M543.926 366.098H514.684V377.395H543.926V366.098Z" fill="#F5F5F5"/>
<path d="M512.126 366.098H482.884V377.395H512.126V366.098Z" fill="#F5F5F5"/>
<path d="M480.325 366.098H451.082V377.395H480.325V366.098Z" fill="#F5F5F5"/>
<path d="M448.523 366.098H419.281V377.395H448.523V366.098Z" fill="#F5F5F5"/>
<path d="M416.723 366.098H387.481V377.395H416.723V366.098Z" fill="#F5F5F5"/>
<path d="M384.922 366.098H355.68V377.395H384.922V366.098Z" fill="#F5F5F5"/>
<path d="M353.122 366.098H323.88V377.395H353.122V366.098Z" fill="#F5F5F5"/>
<path d="M321.32 366.098H292.078V377.395H321.32V366.098Z" fill="#F5F5F5"/>
<path d="M289.519 366.098H260.277V377.395H289.519V366.098Z" fill="#F5F5F5"/>
<path d="M257.719 366.098H228.477V377.395H257.719V366.098Z" fill="#F5F5F5"/>
<path d="M225.918 366.098H196.675V377.395H225.918V366.098Z" fill="#F5F5F5"/>
<path d="M194.118 366.098H164.875V377.395H194.118V366.098Z" fill="#F5F5F5"/>
<path d="M162.316 366.098H133.074V377.395H162.316V366.098Z" fill="#F5F5F5"/>
<path d="M130.515 366.098H101.272V377.395H130.515V366.098Z" fill="#F5F5F5"/>
<path d="M98.7134 366.098H85.3724V377.395H98.7134V366.098Z" fill="#F5F5F5"/>
<path d="M591.628 351.94H562.385V363.237H591.628V351.94Z" fill="#F5F5F5"/>
<path d="M559.828 351.94H530.585V363.237H559.828V351.94Z" fill="#F5F5F5"/>
<path d="M528.026 351.94H498.784V363.237H528.026V351.94Z" fill="#F5F5F5"/>
<path d="M496.225 351.94H466.982V363.237H496.225V351.94Z" fill="#F5F5F5"/>
<path d="M464.425 351.94H435.182V363.237H464.425V351.94Z" fill="#F5F5F5"/>
<path d="M432.623 351.94H403.381V363.237H432.623V351.94Z" fill="#F5F5F5"/>
<path d="M400.823 351.94H371.581V363.237H400.823V351.94Z" fill="#F5F5F5"/>
<path d="M369.022 351.94H339.78V363.237H369.022V351.94Z" fill="#F5F5F5"/>
<path d="M337.221 351.94H307.978V363.237H337.221V351.94Z" fill="#F5F5F5"/>
<path d="M305.42 351.94H276.178V363.237H305.42V351.94Z" fill="#F5F5F5"/>
<path d="M273.619 351.94H244.377V363.237H273.619V351.94Z" fill="#F5F5F5"/>
<path d="M241.818 351.94H212.575V363.237H241.818V351.94Z" fill="#F5F5F5"/>
<path d="M210.018 351.94H180.775V363.237H210.018V351.94Z" fill="#F5F5F5"/>
<path d="M178.216 351.94H148.974V363.237H178.216V351.94Z" fill="#F5F5F5"/>
<path d="M146.415 351.94H117.172V363.237H146.415V351.94Z" fill="#F5F5F5"/>
<path d="M114.615 351.94H85.3724V363.237H114.615V351.94Z" fill="#F5F5F5"/>
<path d="M338.5 493C483.489 493 601.026 486.292 601.026 478.018C601.026 469.744 483.489 463.037 338.5 463.037C193.511 463.037 75.9741 469.744 75.9741 478.018C75.9741 486.292 193.511 493 338.5 493Z" fill="#F5F5F5"/>
<path d="M395.062 137.178C404.556 127.901 404.556 112.86 395.062 103.582C385.568 94.3049 370.176 94.305 360.682 103.582C351.188 112.86 351.188 127.901 360.682 137.178C370.176 146.456 385.568 146.456 395.062 137.178Z" fill="#FF0266"/>
<path d="M374.952 130.934C374.952 129.399 376.194 128.186 377.911 128.186C379.591 128.186 380.796 129.399 380.796 130.934C380.796 132.469 379.591 133.718 377.911 133.718C376.194 133.718 374.952 132.469 374.952 130.934ZM375.208 108.482H380.613L379.701 125.188H376.086L375.208 108.482Z" fill="white"/>
<path d="M382.822 140.547L391.448 149.124L389.477 137.535L382.822 140.547Z" fill="#FF0266"/>
<path d="M318.695 174.407C328.189 165.13 328.189 150.088 318.695 140.811C309.201 131.534 293.808 131.534 284.314 140.811C274.82 150.088 274.82 165.13 284.314 174.407C293.808 183.685 309.201 183.685 318.695 174.407Z" fill="#FF0266"/>
<path d="M305.429 153.124C305.429 151.324 303.85 150.105 301.319 150.105C298.886 150.105 297.111 151.003 295.96 152.577L292.771 150.553C294.613 148.112 297.571 146.634 301.681 146.634C306.513 146.634 309.734 148.787 309.734 152.481C309.734 157.718 304.112 158.199 304.112 161.99H299.937C299.938 157.236 305.429 156.336 305.429 153.124ZM299.413 167.163C299.413 165.782 300.497 164.69 302.042 164.69C303.555 164.69 304.639 165.783 304.639 167.163C304.639 168.545 303.555 169.669 302.042 169.669C300.497 169.669 299.413 168.545 299.413 167.163Z" fill="white"/>
<path d="M296.561 177.776L287.935 186.355L289.906 174.766L296.561 177.776Z" fill="#FF0266"/>
<path d="M423.849 466.973L434.19 466.701C434.577 466.69 434.921 466.943 435.02 467.308L437.192 475.445C437.416 476.289 436.784 477.111 435.889 477.119C432.156 477.156 426.759 477.084 422.07 477.209C416.588 477.353 413.103 477.09 406.674 477.259C402.787 477.361 401.567 473.567 403.182 473.178C410.531 471.407 415.335 471.757 421.595 467.75C422.275 467.314 423.032 466.994 423.849 466.973Z" fill="#263238"/>
<g opacity="0.4">
<path d="M423.849 466.973L434.19 466.701C434.577 466.69 434.921 466.943 435.02 467.308L437.192 475.445C437.416 476.289 436.784 477.111 435.889 477.119C432.156 477.156 426.759 477.084 422.07 477.209C416.588 477.353 413.103 477.09 406.674 477.259C402.787 477.361 401.567 473.567 403.182 473.178C410.531 471.407 415.335 471.757 421.595 467.75C422.275 467.314 423.032 466.994 423.849 466.973Z" fill="white"/>
</g>
<path d="M477.816 466.973L488.156 466.701C488.544 466.69 488.887 466.943 488.985 467.308L491.157 475.445C491.381 476.289 490.749 477.111 489.856 477.119C486.123 477.156 480.726 477.084 476.037 477.209C470.554 477.353 467.069 477.09 460.64 477.259C456.753 477.361 455.533 473.567 457.148 473.178C464.498 471.407 469.302 471.757 475.561 467.75C476.242 467.314 476.999 466.994 477.816 466.973Z" fill="#263238"/>
<g opacity="0.4">
<path d="M477.816 466.973L488.156 466.701C488.544 466.69 488.887 466.943 488.985 467.308L491.157 475.445C491.381 476.289 490.749 477.111 489.856 477.119C486.123 477.156 480.726 477.084 476.037 477.209C470.554 477.353 467.069 477.09 460.64 477.259C456.753 477.361 455.533 473.567 457.148 473.178C464.498 471.407 469.302 471.757 475.561 467.75C476.242 467.314 476.999 466.994 477.816 466.973Z" fill="white"/>
</g>
<path d="M466.209 267.116C474.136 287.306 489.954 466.681 489.954 466.681L473.708 468.407L446.3 319.014L437.296 466.876L421.246 466.734C417.418 359.216 419.777 288.317 419.777 288.317L418.603 280.327L466.209 267.116Z" fill="#263238"/>
<path d="M466.066 266.838C459.093 268.77 432.798 276.073 418.459 280.043C393.803 234.105 396.782 207.523 396.782 207.523C396.782 207.523 405.203 201.662 414.37 196.727C429.968 188.338 443.711 182.953 443.711 182.953C444.063 187.055 444.957 192.387 446.081 197.904C447.042 202.747 448.166 207.735 449.208 212.167C449.967 215.33 450.671 218.227 451.239 220.569C452.905 227.423 454.801 233.866 456.655 239.648C461.002 253.21 465.159 263.252 466.066 266.838Z" fill="#FF0266"/>
<path d="M424.977 191.835C424.977 191.835 417.372 203.699 414.17 204.776C411.927 205.532 407.383 203.087 407.383 203.087C408.716 201.703 409.515 200.386 409.877 199.142C411.004 195.409 408.408 192.257 405.405 189.592L410.079 173.735C411.135 176.214 412.706 179.432 414.619 182.463C414.623 182.475 414.623 182.475 414.623 182.475C417.469 187.016 421.105 191.151 424.977 191.835Z" fill="#E4897B"/>
<path opacity="0.2" d="M414.619 182.462C414.623 182.474 414.623 182.474 414.623 182.474C415.673 188.322 415.533 195.544 409.877 199.141C411.004 195.407 408.408 192.256 405.405 189.591L410.079 173.734C411.137 176.213 412.707 179.431 414.619 182.462Z" fill="black"/>
<path d="M414.17 204.779C414.17 204.779 417.586 206.172 421.351 207.359C424.053 203.815 430.072 194.921 427.405 190.713C426.25 189.672 422.401 190.535 422.401 190.535C422.401 190.535 421.079 197.109 414.17 204.779Z" fill="#FF0266"/>
<path d="M414.17 204.78C414.17 204.78 412.438 208.296 411.995 211.912C408.477 211.526 405.634 202.665 406.147 201.281C407.62 199.019 410.127 197.881 410.127 197.881C410.127 197.881 410.14 202.536 414.17 204.78Z" fill="#FF0266"/>
<g opacity="0.5">
<path d="M414.17 204.779C414.17 204.779 417.586 206.172 421.351 207.359C424.053 203.815 430.072 194.921 427.405 190.713C426.25 189.672 422.401 190.535 422.401 190.535C422.401 190.535 421.079 197.109 414.17 204.779Z" fill="white"/>
<path d="M414.17 204.78C414.17 204.78 412.438 208.296 411.995 211.912C408.477 211.526 405.634 202.665 406.147 201.281C407.62 199.019 410.127 197.881 410.127 197.881C410.127 197.881 410.14 202.536 414.17 204.78Z" fill="white"/>
</g>
<path opacity="0.2" d="M445.008 348.872L446.296 319.02L443.027 303.765C443.027 303.765 439.362 331.501 445.008 348.872Z" fill="black"/>
<path d="M387.355 168.028C386.758 171.853 388.588 179.249 393.417 176.026C398.247 172.801 388.383 161.453 387.355 168.028Z" fill="#263238"/>
<path d="M415.033 168.891C417.092 178.181 418.781 183.52 415.391 189.464C410.292 198.407 397.495 197.293 392.626 188.767C388.243 181.093 385.614 167.191 393.757 161.121C401.778 155.142 412.975 159.603 415.033 168.891Z" fill="#E4897B"/>
<path d="M402.883 175.218C403.097 175.962 402.865 176.673 402.367 176.805C401.867 176.937 401.288 176.441 401.074 175.697C400.86 174.954 401.09 174.243 401.59 174.111C402.089 173.979 402.669 174.474 402.883 175.218Z" fill="#263238"/>
<path d="M394.241 177.508C394.455 178.251 394.225 178.962 393.724 179.094C393.225 179.226 392.645 178.73 392.431 177.986C392.217 177.243 392.447 176.532 392.948 176.4C393.448 176.268 394.026 176.763 394.241 177.508Z" fill="#263238"/>
<path d="M395.74 177.149C395.74 177.149 395.15 181.753 393.796 184.27C395.465 185.078 397.602 183.906 397.602 183.906L395.74 177.149Z" fill="#DE5753"/>
<path d="M403.409 171.797C403.26 171.859 403.082 171.842 402.942 171.739C401.286 170.506 399.662 171.036 399.645 171.042C399.403 171.124 399.136 170.999 399.05 170.764C398.963 170.528 399.09 170.27 399.331 170.187C399.416 170.158 401.451 169.491 403.507 171.022C403.713 171.174 403.752 171.458 403.596 171.657C403.545 171.72 403.481 171.768 403.409 171.797Z" fill="#263238"/>
<path d="M388.329 175.601C388.247 175.634 388.155 175.646 388.062 175.629C387.809 175.582 387.639 175.346 387.685 175.099C388.144 172.634 390.119 171.833 390.203 171.785C390.439 171.69 390.713 171.8 390.813 172.031C390.913 172.261 390.802 172.525 390.568 172.621C390.484 172.652 388.972 173.288 388.603 175.267C388.575 175.422 388.468 175.544 388.329 175.601Z" fill="#263238"/>
<path d="M398.279 165.409C398.279 165.409 400.372 162.927 402.08 164.562C403.789 166.198 405.148 171.417 405.148 171.417L405.417 170.363C405.417 170.363 411.922 181.068 415.953 176.883C419.984 172.698 423.855 159.086 410.923 156.053C410.923 156.053 408.955 153.571 401.12 154.152C393.284 154.733 385.507 161.591 385.286 166.811C385.065 172.031 387.967 174.147 387.967 174.147C387.893 172.296 388.616 170.916 388.616 170.916C389.215 172.429 391.084 172.644 391.084 172.644C390.522 170.754 390.912 169.643 390.912 169.643C391.336 170.637 392.793 171.633 392.793 171.633C391.972 166.532 395.145 164.616 396.247 164.37C397.603 164.066 398.279 165.409 398.279 165.409Z" fill="#263238"/>
<path d="M420.834 175.511C420.765 178.067 419.485 180.346 417.892 181.755C415.494 183.876 412.824 182.117 412.259 179.168C411.75 176.513 412.386 172.211 415.386 171.218C418.34 170.24 420.914 172.588 420.834 175.511Z" fill="#E4897B"/>
<path d="M399.162 187.804C399.024 187.804 398.894 187.72 398.844 187.585C398.78 187.413 398.871 187.224 399.045 187.162C399.087 187.146 403.282 185.613 403.826 181.829C403.854 181.647 404.03 181.527 404.208 181.547C404.394 181.572 404.522 181.74 404.497 181.92C403.897 186.104 399.465 187.716 399.277 187.783C399.24 187.797 399.201 187.804 399.162 187.804Z" fill="#263238"/>
<path d="M418.956 282.729L417.289 277.846L465.75 263.929L467.765 272.612L418.956 282.729Z" fill="#263238"/>
<path d="M421.404 278.058L422.24 280.785L418.347 281.793L417.475 279.098L421.404 278.058Z" fill="black"/>
<path d="M448.512 270.901L449.382 273.769L423.993 280.334L423.155 277.595L448.512 270.901Z" fill="black"/>
<path d="M467.268 269.142L451.147 273.316L450.265 270.45L466.541 266.15L467.268 269.142Z" fill="black"/>
<path d="M433.142 278.267C432.596 278.267 432.086 277.93 431.9 277.404L431.567 276.458C431.449 276.125 431.479 275.754 431.648 275.442C431.818 275.131 432.116 274.898 432.464 274.807L436.737 273.679C437.077 273.589 437.43 273.634 437.735 273.807C438.039 273.979 438.256 274.255 438.347 274.587L438.613 275.573C438.703 275.904 438.655 276.249 438.479 276.546C438.303 276.842 438.02 277.052 437.682 277.138L433.478 278.225C433.365 278.254 433.253 278.267 433.142 278.267ZM432.208 276.243L432.542 277.189C432.649 277.493 432.985 277.66 433.303 277.586L437.509 276.498C437.672 276.456 437.809 276.354 437.894 276.211C437.98 276.068 438.003 275.901 437.959 275.741L437.693 274.756C437.649 274.595 437.544 274.46 437.397 274.378C437.251 274.294 437.081 274.275 436.915 274.316L432.644 275.445C432.472 275.49 432.332 275.6 432.248 275.752C432.164 275.904 432.149 276.079 432.208 276.243Z" fill="white"/>
<path d="M435.941 276.011C435.79 276.011 435.652 275.913 435.613 275.762C435.566 275.586 435.675 275.405 435.855 275.359L437.182 275.022C437.366 274.979 437.549 275.081 437.595 275.26C437.643 275.436 437.533 275.617 437.353 275.663L436.026 276.001C435.998 276.009 435.968 276.011 435.941 276.011Z" fill="white"/>
<path d="M418.734 142.634L421.852 141.446C423.025 141 424.346 141.134 425.4 141.809L430.32 144.958C432.288 146.217 433.509 148.329 433.598 150.624L433.654 152.045C428.62 154.361 421.433 153.238 421.433 153.238L419.349 153.14C417.492 153.051 416.109 151.633 416.172 149.877L416.317 145.837C416.367 144.446 417.329 143.17 418.734 142.634Z" fill="#E4897B"/>
<path opacity="0.2" d="M449.379 213.219C444.532 208.998 440.673 200.2 440.673 200.2C442.609 198.837 444.505 198.533 446.251 198.956C447.213 203.799 448.336 208.787 449.379 213.219Z" fill="black"/>
<path d="M436.868 187.851C442.554 184.868 449.539 181.63 453.532 176.857C453.555 176.853 453.599 177.23 453.616 177.132C453.407 176.061 452.625 174.951 451.789 173.767C445.1 165.379 436.087 158.45 427.762 151.528L431.233 146.342C441.829 152.068 452.06 158.206 460.355 167.062C474.179 181.433 454.572 193.696 442.199 199.228L436.868 187.851Z" fill="#DC897C"/>
<path d="M431.323 189.328L440.578 207.52L457.392 197.882L451.857 177.925L430.477 189.328" fill="#FF0266"/>
<path d="M407.308 219.874C402.881 228.191 398.364 236.915 395.219 245.758C394.06 249.144 393.141 252.248 393.265 255.052C392.931 254.504 391.948 253.714 391.338 253.792C394.11 253.906 397.537 252.166 400.295 251.022C406.047 248.367 411.903 245.082 417.595 241.814L421.496 246.7C414.381 253.094 393.851 271.583 384.36 262.149C375.089 252.219 390.533 224 396.117 213.793L407.308 219.874Z" fill="#DC897C"/>
<path d="M414.282 246.601L414.168 234.568L424.812 236.153C424.812 236.153 426.101 244.554 419.878 248.035L414.282 246.601Z" fill="#E4897B"/>
<path d="M418.213 226.966L425.857 230.004L424.813 236.153L419.546 238.954L414.17 234.568L418.213 226.966Z" fill="#E4897B"/>
<path d="M407.893 227.73L404.585 233.186C404.585 233.186 404.585 233.186 404.586 233.199L402.268 237.031L398.095 243.934L382.343 236.727C382.343 236.727 388.014 216.573 396.783 207.523C396.783 207.523 415.187 219.636 407.893 227.73Z" fill="#FF0266"/>
<path d="M256.014 244.247C253.902 238.238 250.456 224.333 256.014 208.032C261.572 191.73 272.643 193.763 272.643 193.763C272.643 193.763 277.395 186.543 284.75 190.01C292.105 193.476 305.317 202.956 298.175 219.938C291.033 236.92 292.388 240.234 294.924 245.295C297.46 250.355 292.073 254.281 292.266 258.163C292.461 262.045 294.368 263.139 294.368 263.139C294.368 263.139 277.046 271.394 255.863 261.134C255.865 261.133 258.512 251.353 256.014 244.247Z" fill="#263238"/>
<path d="M225.157 336.252C225.157 336.252 224.953 337.813 224.561 340.658C224.263 342.841 223.843 345.791 223.315 349.364C222.977 351.706 222.584 354.325 222.151 357.183C222.124 357.355 222.11 357.527 222.083 357.726C221.528 361.338 220.891 365.334 220.214 369.607C215.773 397.167 208.638 436.689 199.796 467.927L193.554 467.464C193.554 467.464 191.659 423.246 201.204 394.376L201.786 369.607L202.003 360.372L202.057 357.713L202.26 349.8L202.396 344.151L202.612 334.929L225.157 336.252Z" fill="#EBB376"/>
<path opacity="0.2" d="M202.611 334.929L225.155 336.252C225.155 336.252 224.952 337.813 224.559 340.658C224.262 342.841 223.842 345.791 223.314 349.364L202.259 349.8L202.395 344.151L202.611 334.929Z" fill="black"/>
<path d="M192.384 465.529C192.403 464.765 202.022 465.364 202.022 465.364C202.022 465.364 207.94 471.247 213.69 472.568C219.439 473.89 216.226 477.261 209.801 477.261C203.376 477.261 198.472 477.261 193.906 477.261C189.341 477.261 192.193 473.46 192.384 465.529Z" fill="#263238"/>
<path d="M207.083 467.771C205.739 467.771 203.602 466.816 203.096 466.58C203.062 466.564 203.034 466.543 203.011 466.515C202.997 466.499 202.986 466.481 202.977 466.464C202.95 466.405 202.943 466.337 202.967 466.273C203.001 466.18 203.809 463.985 205.113 463.455C205.528 463.287 205.946 463.299 206.358 463.488C206.796 463.692 207.009 463.956 206.99 464.279C206.962 464.773 206.275 465.269 205.494 465.676C206.308 465.598 207.14 465.621 207.651 465.907C207.922 466.059 208.095 466.273 208.165 466.543C208.31 467.1 208.119 467.396 207.932 467.545C207.732 467.706 207.434 467.771 207.083 467.771ZM203.977 466.421C205.394 467.007 207.157 467.526 207.61 467.162C207.649 467.13 207.77 467.034 207.674 466.665C207.637 466.527 207.548 466.42 207.399 466.335C206.706 465.948 205.056 466.187 203.977 466.421ZM205.698 463.833C205.57 463.833 205.44 463.861 205.308 463.914C204.597 464.202 203.991 465.225 203.658 465.934C205.084 465.405 206.459 464.673 206.484 464.251C206.492 464.12 206.272 463.999 206.141 463.938C205.992 463.868 205.845 463.833 205.698 463.833Z" fill="#FF0266"/>
<path d="M252.724 467.808L246.509 468.39C246.509 468.39 236.923 425.138 241.31 395.103L238.168 374.45L236.314 362.33L235.989 360.226L234.31 349.139L233.199 341.848L232.346 336.291L254.796 333.857C254.796 333.857 254.877 335.458 254.985 338.395C255.066 340.922 255.188 344.428 255.31 348.715C255.391 351.269 255.459 354.074 255.527 357.13C255.567 358.797 255.594 360.517 255.635 362.317C255.716 366.101 255.784 370.163 255.825 374.45C256.123 401.798 255.743 438.144 252.724 467.808Z" fill="#EBB376"/>
<path opacity="0.2" d="M255.31 348.715L234.31 349.139L233.199 341.848L232.346 336.291L254.796 333.857C254.796 333.857 254.877 335.458 254.985 338.395C255.066 340.922 255.188 344.428 255.31 348.715Z" fill="black"/>
<path d="M244.883 465.529C244.902 464.765 254.521 465.364 254.521 465.364C254.521 465.364 260.439 471.247 266.188 472.568C271.937 473.89 268.724 477.261 262.3 477.261C255.875 477.261 250.971 477.261 246.405 477.261C241.839 477.261 244.693 473.46 244.883 465.529Z" fill="#263238"/>
<path d="M259.582 467.771C258.237 467.771 256.101 466.816 255.594 466.58C255.561 466.564 255.532 466.543 255.509 466.515C255.496 466.499 255.485 466.481 255.475 466.464C255.448 466.405 255.441 466.337 255.466 466.273C255.5 466.18 256.308 463.985 257.612 463.455C258.026 463.287 258.445 463.299 258.856 463.488C259.295 463.692 259.508 463.956 259.489 464.279C259.46 464.773 258.774 465.269 257.992 465.676C258.806 465.598 259.639 465.621 260.149 465.907C260.42 466.059 260.593 466.273 260.664 466.543C260.809 467.1 260.616 467.396 260.431 467.545C260.231 467.706 259.934 467.771 259.582 467.771ZM256.476 466.421C257.894 467.007 259.655 467.526 260.109 467.162C260.148 467.13 260.269 467.034 260.172 466.665C260.136 466.527 260.046 466.42 259.898 466.335C259.204 465.948 257.555 466.187 256.476 466.421ZM258.197 463.833C258.068 463.833 257.938 463.861 257.807 463.914C257.096 464.202 256.488 465.225 256.156 465.934C257.582 465.405 258.958 464.673 258.982 464.251C258.99 464.12 258.771 463.999 258.64 463.938C258.491 463.868 258.344 463.833 258.197 463.833Z" fill="#FF0266"/>
<path d="M272.004 251.031C270.081 253.862 256.636 275.614 249.135 284.254L212.861 276.302C216.463 271.989 225.534 252.619 229.204 245.143C230.422 242.669 231.343 239.771 232.575 236.649C233.428 234.466 234.444 232.19 235.784 229.861C236.028 229.451 236.258 229.041 236.502 228.657C240.997 221.288 244.693 218.893 244.693 218.893C253.454 222.743 263.203 226.474 267.251 229.835C268.592 230.96 269.946 232.15 271.218 233.315C272.085 234.122 272.775 235.061 273.303 236.106C275.58 240.605 274.808 246.89 272.004 251.031Z" fill="#FF0266"/>
<path d="M214.952 271.392C214.952 271.392 196.316 299.429 200.927 345.438L225.57 346.829L229.583 324.192L230.942 346.891L256.014 346.236C254.882 309.344 251.032 292.043 251.032 292.043L251.959 279.757L214.952 271.392Z" fill="#263238"/>
<g opacity="0.2">
<path d="M225.307 281.511L245.133 285.688L246.206 279.643L226.386 275.427L225.307 281.511Z" fill="white"/>
<path d="M224.643 275.057L214.701 272.943L212.731 278.862L223.564 281.145L224.643 275.057Z" fill="white"/>
<path d="M247.721 279.965L246.65 286.007L251.101 286.946L252.17 280.912L247.721 279.965Z" fill="white"/>
</g>
<path d="M244.282 279.786C243.884 279.234 243.288 278.833 242.637 278.698L237.957 277.703C236.745 277.447 235.68 278.114 235.477 279.257L234.979 282.067C234.87 282.678 235.037 283.346 235.436 283.901C235.794 284.397 236.314 284.768 236.884 284.937C236.95 284.957 237.018 284.974 237.085 284.988L241.766 285.976C242.975 286.231 244.039 285.563 244.241 284.421L244.738 281.619C244.848 281.007 244.681 280.34 244.282 279.786ZM241.862 284.82L237.181 283.833C236.861 283.767 236.579 283.579 236.383 283.307C236.186 283.036 236.108 282.719 236.161 282.419L236.659 279.609C236.758 279.054 237.274 278.732 237.861 278.856L242.541 279.851C242.574 279.859 242.607 279.867 242.639 279.876C242.917 279.959 243.162 280.135 243.338 280.379C243.534 280.651 243.612 280.966 243.559 281.267L243.483 281.693C243.425 281.665 243.371 281.632 243.306 281.617L241.998 281.327C241.563 281.231 241.174 281.495 241.134 281.915C241.095 282.334 241.418 282.756 241.853 282.854L243.161 283.144C243.184 283.149 243.203 283.143 243.224 283.145L243.061 284.068C242.963 284.621 242.449 284.945 241.862 284.82Z" fill="white"/>
<path opacity="0.2" d="M229.583 324.194C235.19 316.555 239.287 310.182 239.287 310.182C239.287 310.182 236.453 331.443 230.942 346.893L229.583 324.194Z" fill="black"/>
<path d="M271.545 214.143L271.477 216.855L271.247 227.321C270.367 227.771 269.514 228.273 268.755 228.842C268.634 228.935 268.512 229.027 268.403 229.12C266.237 230.893 268.119 232.468 268.119 232.468C268.119 232.468 268.119 236.053 261.823 240.036C259.792 228.988 255.865 224.622 255.865 224.622C258.316 224.899 262.351 223.338 265.032 221.062C265.235 220.89 265.425 220.732 265.614 220.546C267.103 219.237 268.512 217.755 269.703 216.365C270.392 215.585 271.003 214.817 271.545 214.143Z" fill="#EBB376"/>
<path opacity="0.2" d="M271.545 214.143L271.477 216.855L271.247 227.321C270.367 227.771 269.514 228.273 268.755 228.842C266.454 226.5 265.777 222.981 265.614 220.546C267.103 219.237 268.512 217.755 269.703 216.365C270.392 215.585 271.003 214.817 271.545 214.143Z" fill="black"/>
<path d="M285.239 199.03C293.418 203.066 293.84 208.643 290.184 217.175C285.615 227.837 279.501 233.997 270.41 226.754C258.064 216.916 271.657 192.329 285.239 199.03Z" fill="#EBB376"/>
<path d="M285.127 214.119C285.127 214.119 285.181 216.765 285.794 218.608C285.794 218.608 284.532 219.35 283.171 218.448L285.127 214.119Z" fill="#D58745"/>
<path d="M280.459 210.996C280.136 211.661 279.506 212.028 279.053 211.817C278.599 211.606 278.495 210.897 278.818 210.233C279.142 209.569 279.772 209.201 280.225 209.411C280.677 209.623 280.782 210.332 280.459 210.996Z" fill="#263238"/>
<path d="M280.019 209.356L281.774 209.476C281.774 209.476 280.446 210.351 280.019 209.356Z" fill="#263238"/>
<path d="M288.976 214.787C288.652 215.451 288.023 215.819 287.571 215.609C287.117 215.399 287.011 214.688 287.335 214.025C287.659 213.361 288.288 212.993 288.742 213.204C289.195 213.414 289.3 214.123 288.976 214.787Z" fill="#263238"/>
<path d="M288.537 213.148L290.292 213.268C290.292 213.268 288.964 214.141 288.537 213.148Z" fill="#263238"/>
<path d="M283.227 205.807C283.154 205.807 283.081 205.786 283.016 205.744C282.995 205.729 281.009 204.447 279.211 205.233C279.02 205.315 278.795 205.233 278.71 205.046C278.623 204.86 278.71 204.64 278.901 204.557C281.093 203.598 283.346 205.066 283.441 205.13C283.614 205.245 283.659 205.474 283.541 205.643C283.468 205.75 283.349 205.807 283.227 205.807Z" fill="#263238"/>
<path d="M292.268 210.667C292.135 210.667 292.008 210.6 291.937 210.479C290.851 208.61 289.365 208.407 289.302 208.399C289.095 208.374 288.948 208.19 288.972 207.988C288.996 207.785 289.187 207.654 289.39 207.664C289.468 207.673 291.312 207.9 292.598 210.114C292.701 210.291 292.637 210.517 292.456 210.619C292.396 210.652 292.331 210.667 292.268 210.667Z" fill="#263238"/>
<path d="M269.34 208.091C269.34 208.091 276.557 203.411 278.598 198.056C278.598 198.056 298.148 199.583 290.643 216.053C290.643 216.053 299.602 202.56 285.706 195.306C271.833 188.062 261.486 208.179 265.652 217.751C265.652 217.751 264.853 211.031 269.34 208.091Z" fill="#263238"/>
<path d="M280.572 221.923C280.547 221.923 280.522 221.921 280.497 221.916C276.293 221.104 276.431 217.186 276.433 217.146C276.443 216.941 276.632 216.794 276.828 216.794C277.036 216.803 277.199 216.977 277.191 217.181C277.185 217.316 277.089 220.503 280.645 221.19C280.851 221.229 280.985 221.424 280.943 221.625C280.908 221.799 280.749 221.923 280.572 221.923Z" fill="#263238"/>
<path d="M268.146 206.15C268.095 206.254 268.133 206.376 268.233 206.446C268.25 206.458 268.269 206.469 268.291 206.478L276.722 209.964C276.163 211.486 276.703 213.252 278.235 214.329C280.171 215.691 282.943 215.438 284.412 213.764C284.557 213.6 284.668 213.423 284.777 213.244C285.296 213.031 285.709 212.986 285.967 213.122C286.286 213.298 286.328 213.681 286.33 213.705C285.789 215.22 286.332 216.97 287.855 218.04C289.792 219.402 292.563 219.149 294.032 217.475C295.501 215.802 295.119 213.332 293.183 211.97C291.245 210.609 288.475 210.861 287.006 212.535C286.861 212.7 286.749 212.878 286.639 213.058C286.546 212.925 286.426 212.798 286.244 212.703C285.929 212.536 285.535 212.514 285.076 212.621C285.634 211.101 285.094 209.336 283.563 208.26C281.625 206.899 278.855 207.151 277.386 208.825C277.196 209.041 277.04 209.27 276.912 209.508L268.512 206.035C268.371 205.974 268.207 206.027 268.146 206.15ZM287.449 212.845C288.732 211.381 291.153 211.16 292.846 212.351C294.538 213.542 294.871 215.7 293.588 217.162C292.304 218.625 289.883 218.846 288.191 217.655C286.498 216.466 286.165 214.308 287.449 212.845ZM277.829 209.135C279.112 207.673 281.533 207.45 283.226 208.641C284.918 209.832 285.251 211.99 283.968 213.452C282.684 214.915 280.263 215.136 278.57 213.947C276.878 212.756 276.545 210.598 277.829 209.135Z" fill="#263238"/>
<g opacity="0.3">
<path d="M268.146 206.15C268.095 206.254 268.133 206.376 268.233 206.446C268.25 206.458 268.269 206.469 268.291 206.478L276.722 209.964C276.163 211.486 276.703 213.252 278.235 214.329C280.171 215.691 282.943 215.438 284.412 213.764C284.557 213.6 284.668 213.423 284.777 213.244C285.296 213.031 285.709 212.986 285.967 213.122C286.286 213.298 286.328 213.681 286.33 213.705C285.789 215.22 286.332 216.97 287.855 218.04C289.792 219.402 292.563 219.149 294.032 217.475C295.501 215.802 295.119 213.332 293.183 211.97C291.245 210.609 288.475 210.861 287.006 212.535C286.861 212.7 286.749 212.878 286.639 213.058C286.546 212.925 286.426 212.798 286.244 212.703C285.929 212.536 285.535 212.514 285.076 212.621C285.634 211.101 285.094 209.336 283.563 208.26C281.625 206.899 278.855 207.151 277.386 208.825C277.196 209.041 277.04 209.27 276.912 209.508L268.512 206.035C268.371 205.974 268.207 206.027 268.146 206.15ZM287.449 212.845C288.732 211.381 291.153 211.16 292.846 212.351C294.538 213.542 294.871 215.7 293.588 217.162C292.304 218.625 289.883 218.846 288.191 217.655C286.498 216.466 286.165 214.308 287.449 212.845ZM277.829 209.135C279.112 207.673 281.533 207.45 283.226 208.641C284.918 209.832 285.251 211.99 283.968 213.452C282.684 214.915 280.263 215.136 278.57 213.947C276.878 212.756 276.545 210.598 277.829 209.135Z" fill="white"/>
</g>
<path d="M269.805 210.437C270.415 209.123 270.181 206.274 267.598 205.327C264.924 204.346 261.089 208.836 266.761 213.168C267.575 213.791 268.532 213.178 269.805 210.437Z" fill="#EBB376"/>
<path d="M275.088 243.145C279.596 253.317 283.574 262.687 285.253 273.992C286.225 280.327 283.742 287.256 275.726 286.131C270.33 285.175 265.874 281.941 261.774 278.84C259.593 277.169 257.603 275.386 255.635 273.439C254.595 272.408 254.606 270.749 255.661 269.733C256.552 268.873 257.9 268.751 258.924 269.349C264.811 272.298 270.472 276.059 276.768 276.989C277.05 276.982 277.184 276.907 276.935 276.929C276.789 276.964 276.641 276.969 276.273 277.2C275.907 277.452 275.668 277.743 275.559 277.899C275.344 278.255 275.429 278.158 275.425 277.888C275.242 272.503 272.861 266.683 271.017 261.448C269.209 256.752 267.25 251.962 265.249 247.374C262.685 240.987 271.993 236.973 275.088 243.145Z" fill="#E9B376"/>
<path d="M260.958 271.454L262.287 262.11L253.18 263.833C253.18 263.833 253.369 272.793 256.192 273.292L260.958 271.454Z" fill="#EBB376"/>
<path d="M256.664 255.704L250.651 258.508L253.18 263.833L262.287 262.11L256.664 255.704Z" fill="#EBB376"/>
<path d="M282.806 260.985L269.963 264.498L268.888 263.021L264.603 257.189L262.289 242.591L272.429 234.656C279.824 241.06 282.806 260.985 282.806 260.985Z" fill="#FF0266"/>
<path opacity="0.2" d="M268.887 263.021L266.435 259.683C269.351 255.219 271.545 250.441 271.545 250.441C271.545 250.441 272.019 258.729 268.887 263.021Z" fill="black"/>
<path opacity="0.2" d="M242.068 233.91C242.068 233.91 237.207 237.826 232.577 236.649C233.43 234.465 234.445 232.19 235.785 229.861C236.029 229.451 236.259 229.041 236.503 228.657C238.507 229.226 240.538 230.8 242.068 233.91Z" fill="black"/>
<path d="M256.431 187.929L254.446 186.219C253.7 185.576 252.681 185.324 251.711 185.545L247.181 186.576C245.369 186.989 243.876 188.232 243.17 189.914L242.734 190.955C245.828 194.012 251.477 195.087 251.477 195.087L253.052 195.569C254.454 195.996 255.878 195.311 256.319 193.991L257.334 190.953C257.686 189.902 257.326 188.699 256.431 187.929Z" fill="#EBB376"/>
<path d="M239.37 228.148C231.939 222.676 209.527 206.566 217.696 196.264C219.9 193.852 222.323 193.067 224.898 192.068C232.988 189.349 241.192 188.118 249.594 187.292C252.754 187.039 253.634 191.466 250.629 192.395C242.501 195.237 232.908 197.56 225.582 201.867C225.254 202.083 225.017 202.371 225.23 202.186C225.595 201.798 225.695 201.329 225.724 201.167C230.088 208.32 238.794 214.259 245.651 219.629C251.248 223.857 245.259 231.996 239.37 228.148Z" fill="#E9B376"/>
<path d="M253.004 222.415L233.769 209.201L227.449 224.406C227.449 224.406 233.083 233.23 240.259 234.054C247.437 234.877 253.004 222.415 253.004 222.415Z" fill="#FF0266"/>
<path d="M558.413 26.1194H426.454V477.262H558.413V26.1194Z" fill="#FF0266"/>
<path opacity="0.5" d="M558.413 26.1194H426.454V477.262H558.413V26.1194Z" fill="white"/>
<g opacity="0.3">
<path d="M534.608 98.6426H493.824V110.083H534.608V98.6426Z" fill="white"/>
<path d="M491.043 98.6426H450.259V110.083H491.043V98.6426Z" fill="white"/>
<path d="M447.478 98.6426H428.477V110.083H447.478V98.6426Z" fill="white"/>
<path d="M556.39 98.6426H537.389V110.083H556.39V98.6426Z" fill="white"/>
</g>
<g opacity="0.3">
<path d="M512.825 112.674H472.041V124.115H512.825V112.674Z" fill="white"/>
<path d="M469.261 112.674H428.477V124.115H469.261V112.674Z" fill="white"/>
<path d="M556.39 112.674H515.606V124.115H556.39V112.674Z" fill="white"/>
</g>
<g opacity="0.3">
<path d="M534.608 70.5811H493.824V82.0219H534.608V70.5811Z" fill="white"/>
<path d="M491.043 70.5811H450.259V82.0219H491.043V70.5811Z" fill="white"/>
<path d="M447.478 70.5811H428.477V82.0219H447.478V70.5811Z" fill="white"/>
<path d="M556.39 70.5811H537.389V82.0219H556.39V70.5811Z" fill="white"/>
</g>
<g opacity="0.3">
<path d="M512.825 84.6123H472.041V96.0532H512.825V84.6123Z" fill="white"/>
<path d="M469.261 84.6125H428.477V96.0534H469.261V84.6125Z" fill="white"/>
<path d="M556.39 84.6123H515.606V96.0532H556.39V84.6123Z" fill="white"/>
</g>
<g opacity="0.3">
<path d="M534.608 42.5181H493.824V53.9589H534.608V42.5181Z" fill="white"/>
<path d="M491.043 42.5181H450.259V53.9589H491.043V42.5181Z" fill="white"/>
<path d="M447.478 42.5181H428.477V53.9589H447.478V42.5181Z" fill="white"/>
<path d="M556.39 42.5181H537.389V53.9589H556.39V42.5181Z" fill="white"/>
</g>
<g opacity="0.3">
<path d="M512.825 56.5496H472.041V67.9904H512.825V56.5496Z" fill="white"/>
<path d="M469.261 56.5496H428.477V67.9904H469.261V56.5496Z" fill="white"/>
<path d="M556.39 56.5496H515.606V67.9904H556.39V56.5496Z" fill="white"/>
</g>
<g opacity="0.3">
<path d="M512.825 28.4878H472.041V39.9287H512.825V28.4878Z" fill="white"/>
<path d="M469.261 28.4878H428.477V39.9287H469.261V28.4878Z" fill="white"/>
<path d="M556.39 28.4878H515.606V39.9287H556.39V28.4878Z" fill="white"/>
</g>
<g opacity="0.3">
<path d="M534.608 126.705H493.824V138.146H534.608V126.705Z" fill="white"/>
<path d="M491.043 126.705H450.259V138.146H491.043V126.705Z" fill="white"/>
<path d="M447.478 126.705H428.477V138.146H447.478V126.705Z" fill="white"/>
<path d="M556.39 126.705H537.389V138.146H556.39V126.705Z" fill="white"/>
</g>
<g opacity="0.3">
<path d="M512.825 140.736H472.041V152.176H512.825V140.736Z" fill="white"/>
<path d="M469.261 140.736H428.477V152.176H469.261V140.736Z" fill="white"/>
<path d="M556.39 140.736H515.606V152.176H556.39V140.736Z" fill="white"/>
</g>
<g opacity="0.3">
<path d="M534.608 154.767H493.824V166.208H534.608V154.767Z" fill="white"/>
<path d="M491.043 154.767H450.259V166.208H491.043V154.767Z" fill="white"/>
<path d="M447.478 154.767H428.477V166.208H447.478V154.767Z" fill="white"/>
<path d="M556.39 154.767H537.389V166.208H556.39V154.767Z" fill="white"/>
</g>
<g opacity="0.3">
<path d="M512.825 168.799H472.041V180.24H512.825V168.799Z" fill="white"/>
<path d="M469.261 168.799H428.477V180.24H469.261V168.799Z" fill="white"/>
<path d="M556.39 168.799H515.606V180.24H556.39V168.799Z" fill="white"/>
</g>
<g opacity="0.3">
<path d="M534.608 182.83H493.824V194.271H534.608V182.83Z" fill="white"/>
<path d="M491.043 182.83H450.259V194.271H491.043V182.83Z" fill="white"/>
<path d="M447.478 182.83H428.477V194.271H447.478V182.83Z" fill="white"/>
<path d="M556.39 182.83H537.389V194.271H556.39V182.83Z" fill="white"/>
</g>
<g opacity="0.3">
<path d="M512.825 196.861H472.041V208.301H512.825V196.861Z" fill="white"/>
<path d="M469.261 196.861H428.477V208.301H469.261V196.861Z" fill="white"/>
<path d="M556.39 196.861H515.606V208.301H556.39V196.861Z" fill="white"/>
</g>
<g opacity="0.3">
<path d="M534.608 210.892H493.824V222.333H534.608V210.892Z" fill="white"/>
<path d="M491.043 210.892H450.259V222.333H491.043V210.892Z" fill="white"/>
<path d="M447.478 210.892H428.477V222.333H447.478V210.892Z" fill="white"/>
<path d="M556.39 210.892H537.389V222.333H556.39V210.892Z" fill="white"/>
</g>
<g opacity="0.3">
<path d="M512.825 224.924H472.041V236.364H512.825V224.924Z" fill="white"/>
<path d="M469.261 224.924H428.477V236.364H469.261V224.924Z" fill="white"/>
<path d="M556.39 224.924H515.606V236.364H556.39V224.924Z" fill="white"/>
</g>
<g opacity="0.3">
<path d="M534.608 238.954H493.824V250.395H534.608V238.954Z" fill="white"/>
<path d="M491.043 238.954H450.259V250.395H491.043V238.954Z" fill="white"/>
<path d="M447.478 238.954H428.477V250.395H447.478V238.954Z" fill="white"/>
<path d="M556.39 238.954H537.389V250.395H556.39V238.954Z" fill="white"/>
</g>
<g opacity="0.3">
<path d="M512.825 252.985H472.041V264.426H512.825V252.985Z" fill="white"/>
<path d="M469.261 252.985H428.477V264.426H469.261V252.985Z" fill="white"/>
<path d="M556.39 252.985H515.606V264.426H556.39V252.985Z" fill="white"/>
</g>
<g opacity="0.3">
<path d="M534.608 267.017H493.824V278.458H534.608V267.017Z" fill="white"/>
<path d="M491.043 267.017H450.259V278.458H491.043V267.017Z" fill="white"/>
<path d="M447.478 267.017H428.477V278.458H447.478V267.017Z" fill="white"/>
<path d="M556.39 267.017H537.389V278.458H556.39V267.017Z" fill="white"/>
</g>
<g opacity="0.3">
<path d="M512.825 281.048H472.041V292.489H512.825V281.048Z" fill="white"/>
<path d="M469.261 281.048H428.477V292.489H469.261V281.048Z" fill="white"/>
<path d="M556.39 281.048H515.606V292.489H556.39V281.048Z" fill="white"/>
</g>
<g opacity="0.3">
<path d="M534.608 295.079H493.824V306.519H534.608V295.079Z" fill="white"/>
<path d="M491.043 295.079H450.259V306.519H491.043V295.079Z" fill="white"/>
<path d="M447.478 295.079H428.477V306.519H447.478V295.079Z" fill="white"/>
<path d="M556.39 295.079H537.389V306.519H556.39V295.079Z" fill="white"/>
</g>
<g opacity="0.3">
<path d="M512.825 309.11H472.041V320.551H512.825V309.11Z" fill="white"/>
<path d="M469.261 309.11H428.477V320.551H469.261V309.11Z" fill="white"/>
<path d="M556.39 309.11H515.606V320.551H556.39V309.11Z" fill="white"/>
</g>
<g opacity="0.3">
<path d="M534.608 323.142H493.824V334.582H534.608V323.142Z" fill="white"/>
<path d="M491.043 323.142H450.259V334.582H491.043V323.142Z" fill="white"/>
<path d="M447.478 323.142H428.477V334.582H447.478V323.142Z" fill="white"/>
<path d="M556.39 323.142H537.389V334.582H556.39V323.142Z" fill="white"/>
</g>
<g opacity="0.3">
<path d="M512.825 337.173H472.041V348.614H512.825V337.173Z" fill="white"/>
<path d="M469.261 337.173H428.477V348.614H469.261V337.173Z" fill="white"/>
<path d="M556.39 337.173H515.606V348.614H556.39V337.173Z" fill="white"/>
</g>
<g opacity="0.3">
<path d="M534.608 351.203H493.824V362.644H534.608V351.203Z" fill="white"/>
<path d="M491.043 351.203H450.259V362.644H491.043V351.203Z" fill="white"/>
<path d="M447.478 351.203H428.477V362.644H447.478V351.203Z" fill="white"/>
<path d="M556.39 351.203H537.389V362.644H556.39V351.203Z" fill="white"/>
</g>
<g opacity="0.3">
<path d="M512.825 365.234H472.041V376.675H512.825V365.234Z" fill="white"/>
<path d="M469.261 365.235H428.477V376.675H469.261V365.235Z" fill="white"/>
<path d="M556.39 365.234H515.606V376.675H556.39V365.234Z" fill="white"/>
</g>
<g opacity="0.3">
<path d="M534.608 379.266H493.824V390.707H534.608V379.266Z" fill="white"/>
<path d="M491.043 379.266H450.259V390.707H491.043V379.266Z" fill="white"/>
<path d="M447.478 379.266H428.477V390.707H447.478V379.266Z" fill="white"/>
<path d="M556.39 379.266H537.389V390.707H556.39V379.266Z" fill="white"/>
</g>
<g opacity="0.3">
<path d="M512.825 393.296H472.041V404.737H512.825V393.296Z" fill="white"/>
<path d="M469.261 393.296H428.477V404.737H469.261V393.296Z" fill="white"/>
<path d="M556.39 393.296H515.606V404.737H556.39V393.296Z" fill="white"/>
</g>
<g opacity="0.3">
<path d="M534.608 407.328H493.824V418.769H534.608V407.328Z" fill="white"/>
<path d="M491.043 407.328H450.259V418.769H491.043V407.328Z" fill="white"/>
<path d="M447.478 407.328H428.477V418.769H447.478V407.328Z" fill="white"/>
<path d="M556.39 407.328H537.389V418.769H556.39V407.328Z" fill="white"/>
</g>
<g opacity="0.3">
<path d="M512.825 421.359H472.041V432.8H512.825V421.359Z" fill="white"/>
<path d="M469.261 421.359H428.477V432.8H469.261V421.359Z" fill="white"/>
<path d="M556.39 421.359H515.606V432.8H556.39V421.359Z" fill="white"/>
</g>
<g opacity="0.3">
<path d="M534.608 435.391H493.824V446.832H534.608V435.391Z" fill="white"/>
<path d="M491.043 435.391H450.259V446.832H491.043V435.391Z" fill="white"/>
<path d="M447.478 435.391H428.477V446.832H447.478V435.391Z" fill="white"/>
<path d="M556.39 435.391H537.389V446.832H556.39V435.391Z" fill="white"/>
</g>
<g opacity="0.3">
<path d="M512.825 449.421H472.041V460.862H512.825V449.421Z" fill="white"/>
<path d="M469.261 449.421H428.477V460.862H469.261V449.421Z" fill="white"/>
<path d="M556.39 449.421H515.606V460.862H556.39V449.421Z" fill="white"/>
</g>
<g opacity="0.3">
<path d="M534.608 463.453H493.824V474.894H534.608V463.453Z" fill="white"/>
<path d="M491.043 463.453H450.259V474.894H491.043V463.453Z" fill="white"/>
<path d="M447.478 463.453H428.477V474.894H447.478V463.453Z" fill="white"/>
<path d="M556.39 463.453H537.389V474.894H556.39V463.453Z" fill="white"/>
</g>
<path d="M120.267 477.261H252.225L252.225 26.1189H120.267L120.267 477.261Z" fill="#FF0266"/>
<path opacity="0.5" d="M120.267 477.261H252.225L252.225 26.1189H120.267L120.267 477.261Z" fill="white"/>
<g opacity="0.3">
<path d="M144.072 110.084H184.855V98.6436H144.072V110.084Z" fill="white"/>
<path d="M187.636 110.084H228.42V98.6436H187.636V110.084Z" fill="white"/>
<path d="M231.201 110.084H250.202V98.6436H231.201V110.084Z" fill="white"/>
<path d="M122.29 110.084H141.29V98.6436H122.29V110.084Z" fill="white"/>
</g>
<g opacity="0.3">
<path d="M165.853 124.115H206.637V112.674H165.853V124.115Z" fill="white"/>
<path d="M209.418 124.115H250.201V112.674H209.418V124.115Z" fill="white"/>
<path d="M122.289 124.115H163.073V112.674H122.289V124.115Z" fill="white"/>
</g>
<g opacity="0.3">
<path d="M144.072 82.0215H184.855V70.5806H144.072V82.0215Z" fill="white"/>
<path d="M187.636 82.0215H228.42V70.5806H187.636V82.0215Z" fill="white"/>
<path d="M231.201 82.0215H250.202V70.5806H231.201V82.0215Z" fill="white"/>
<path d="M122.29 82.0215H141.29V70.5806H122.29V82.0215Z" fill="white"/>
</g>
<g opacity="0.3">
<path d="M165.853 96.052H206.637V84.6111H165.853V96.052Z" fill="white"/>
<path d="M209.418 96.052H250.201V84.6111H209.418V96.052Z" fill="white"/>
<path d="M122.289 96.052H163.073V84.6111H122.289V96.052Z" fill="white"/>
</g>
<g opacity="0.3">
<path d="M144.072 53.96L184.855 53.96V42.5191L144.072 42.5191V53.96Z" fill="white"/>
<path d="M187.636 53.96L228.42 53.96V42.5191L187.636 42.5191V53.96Z" fill="white"/>
<path d="M231.201 53.96H250.202V42.5191H231.201V53.96Z" fill="white"/>
<path d="M122.29 53.96H141.29V42.5191H122.29V53.96Z" fill="white"/>
</g>
<g opacity="0.3">
<path d="M165.853 67.9905H206.637V56.5496L165.853 56.5496V67.9905Z" fill="white"/>
<path d="M209.418 67.9905H250.201V56.5496L209.418 56.5496V67.9905Z" fill="white"/>
<path d="M122.289 67.9905H163.073V56.5496L122.289 56.5496V67.9905Z" fill="white"/>
</g>
<g opacity="0.3">
<path d="M165.853 39.928L206.637 39.928V28.4871L165.853 28.4871V39.928Z" fill="white"/>
<path d="M209.418 39.928L250.201 39.928V28.4871L209.418 28.4871V39.928Z" fill="white"/>
<path d="M122.289 39.928L163.073 39.928V28.4871L122.289 28.4871V39.928Z" fill="white"/>
</g>
<g opacity="0.3">
<path d="M144.072 138.146H184.855V126.705H144.072V138.146Z" fill="white"/>
<path d="M187.636 138.146H228.42V126.705H187.636V138.146Z" fill="white"/>
<path d="M231.201 138.146H250.202V126.705H231.201V138.146Z" fill="white"/>
<path d="M122.29 138.146H141.29V126.705H122.29V138.146Z" fill="white"/>
</g>
<g opacity="0.3">
<path d="M165.853 152.178H206.637V140.737H165.853V152.178Z" fill="white"/>
<path d="M209.418 152.178H250.201V140.737H209.418V152.178Z" fill="white"/>
<path d="M122.289 152.178H163.073V140.737H122.289V152.178Z" fill="white"/>
</g>
<g opacity="0.3">
<path d="M144.072 166.209H184.855V154.768H144.072V166.209Z" fill="white"/>
<path d="M187.636 166.209H228.42V154.768H187.636V166.209Z" fill="white"/>
<path d="M231.201 166.209H250.202V154.768H231.201V166.209Z" fill="white"/>
<path d="M122.29 166.209H141.29V154.768H122.29V166.209Z" fill="white"/>
</g>
<g opacity="0.3">
<path d="M165.853 180.24H206.637V168.799H165.853V180.24Z" fill="white"/>
<path d="M209.418 180.24H250.201V168.799H209.418V180.24Z" fill="white"/>
<path d="M122.289 180.24H163.073V168.799H122.289V180.24Z" fill="white"/>
</g>
<g opacity="0.3">
<path d="M144.072 194.27H184.855V182.829H144.072V194.27Z" fill="white"/>
<path d="M187.636 194.27H228.42V182.829H187.636V194.27Z" fill="white"/>
<path d="M231.201 194.27H250.202V182.829H231.201V194.27Z" fill="white"/>
<path d="M122.29 194.27H141.29V182.829H122.29V194.27Z" fill="white"/>
</g>
<g opacity="0.3">
<path d="M165.853 208.302H206.637V196.861H165.853V208.302Z" fill="white"/>
<path d="M209.418 208.302H250.201V196.861H209.418V208.302Z" fill="white"/>
<path d="M122.289 208.302H163.073V196.861H122.289V208.302Z" fill="white"/>
</g>
<g opacity="0.3">
<path d="M144.072 222.333H184.855V210.892H144.072V222.333Z" fill="white"/>
<path d="M187.636 222.333H228.42V210.892H187.636V222.333Z" fill="white"/>
<path d="M231.201 222.333H250.202V210.892H231.201V222.333Z" fill="white"/>
<path d="M122.29 222.333H141.29V210.892H122.29V222.333Z" fill="white"/>
</g>
<g opacity="0.3">
<path d="M165.853 236.364H206.637V224.923H165.853V236.364Z" fill="white"/>
<path d="M209.418 236.364H250.201V224.923H209.418V236.364Z" fill="white"/>
<path d="M122.289 236.364H163.073V224.923H122.289V236.364Z" fill="white"/>
</g>
<g opacity="0.3">
<path d="M144.072 250.396H184.855V238.955H144.072V250.396Z" fill="white"/>
<path d="M187.636 250.396H228.42V238.955H187.636V250.396Z" fill="white"/>
<path d="M231.201 250.396H250.202V238.955H231.201V250.396Z" fill="white"/>
<path d="M122.29 250.396H141.29V238.955H122.29V250.396Z" fill="white"/>
</g>
<g opacity="0.3">
<path d="M165.853 264.427H206.637V252.986H165.853V264.427Z" fill="white"/>
<path d="M209.418 264.427H250.201V252.986H209.418V264.427Z" fill="white"/>
<path d="M122.289 264.427H163.073V252.986H122.289V264.427Z" fill="white"/>
</g>
<g opacity="0.3">
<path d="M144.072 278.458H184.855V267.017H144.072V278.458Z" fill="white"/>
<path d="M187.636 278.458H228.42V267.017H187.636V278.458Z" fill="white"/>
<path d="M231.201 278.458H250.202V267.017H231.201V278.458Z" fill="white"/>
<path d="M122.29 278.458H141.29V267.017H122.29V278.458Z" fill="white"/>
</g>
<g opacity="0.3">
<path d="M165.853 292.489H206.637V281.048H165.853V292.489Z" fill="white"/>
<path d="M209.418 292.489H250.201V281.048H209.418V292.489Z" fill="white"/>
<path d="M122.289 292.489H163.073V281.048H122.289V292.489Z" fill="white"/>
</g>
<g opacity="0.3">
<path d="M144.072 306.521H184.855V295.08H144.072V306.521Z" fill="white"/>
<path d="M187.636 306.521H228.42V295.08H187.636V306.521Z" fill="white"/>
<path d="M231.201 306.521H250.202V295.08H231.201V306.521Z" fill="white"/>
<path d="M122.29 306.521H141.29V295.08H122.29V306.521Z" fill="white"/>
</g>
<g opacity="0.3">
<path d="M165.853 320.551H206.637V309.11H165.853V320.551Z" fill="white"/>
<path d="M209.418 320.551H250.201V309.11H209.418V320.551Z" fill="white"/>
<path d="M122.289 320.551H163.073V309.11H122.289V320.551Z" fill="white"/>
</g>
<g opacity="0.3">
<path d="M144.072 334.582H184.855V323.141H144.072V334.582Z" fill="white"/>
<path d="M187.636 334.582H228.42V323.141H187.636V334.582Z" fill="white"/>
<path d="M231.201 334.582H250.202V323.141H231.201V334.582Z" fill="white"/>
<path d="M122.29 334.582H141.29V323.141H122.29V334.582Z" fill="white"/>
</g>
<g opacity="0.3">
<path d="M165.853 348.613H206.637V337.172H165.853V348.613Z" fill="white"/>
<path d="M209.418 348.613H250.201V337.172H209.418V348.613Z" fill="white"/>
<path d="M122.289 348.613H163.073V337.172H122.289V348.613Z" fill="white"/>
</g>
<g opacity="0.3">
<path d="M144.072 362.645H184.855V351.204H144.072V362.645Z" fill="white"/>
<path d="M187.636 362.645H228.42V351.204H187.636V362.645Z" fill="white"/>
<path d="M231.201 362.645H250.202V351.204H231.201V362.645Z" fill="white"/>
<path d="M122.29 362.645H141.29V351.204H122.29V362.645Z" fill="white"/>
</g>
<g opacity="0.3">
<path d="M165.853 376.676H206.637V365.235H165.853V376.676Z" fill="white"/>
<path d="M209.418 376.676H250.201V365.235H209.418V376.676Z" fill="white"/>
<path d="M122.289 376.676H163.073V365.235H122.289V376.676Z" fill="white"/>
</g>
<g opacity="0.3">
<path d="M144.072 390.706H184.855V379.265H144.072V390.706Z" fill="white"/>
<path d="M187.636 390.706H228.42V379.265H187.636V390.706Z" fill="white"/>
<path d="M231.201 390.706H250.202V379.265H231.201V390.706Z" fill="white"/>
<path d="M122.29 390.706H141.29V379.265H122.29V390.706Z" fill="white"/>
</g>
<g opacity="0.3">
<path d="M165.853 404.738H206.637V393.297H165.853V404.738Z" fill="white"/>
<path d="M209.418 404.738H250.201V393.297H209.418V404.738Z" fill="white"/>
<path d="M122.289 404.738H163.073V393.297H122.289V404.738Z" fill="white"/>
</g>
<g opacity="0.3">
<path d="M144.072 418.769H184.855V407.328H144.072V418.769Z" fill="white"/>
<path d="M187.636 418.769H228.42V407.328H187.636V418.769Z" fill="white"/>
<path d="M231.201 418.769H250.202V407.328H231.201V418.769Z" fill="white"/>
<path d="M122.29 418.769H141.29V407.328H122.29V418.769Z" fill="white"/>
</g>
<g opacity="0.3">
<path d="M165.853 432.8H206.637V421.359H165.853V432.8Z" fill="white"/>
<path d="M209.418 432.8H250.201V421.359H209.418V432.8Z" fill="white"/>
<path d="M122.289 432.8H163.073V421.359H122.289V432.8Z" fill="white"/>
</g>
<g opacity="0.3">
<path d="M144.072 446.831H184.855V435.39H144.072V446.831Z" fill="white"/>
<path d="M187.636 446.831H228.42V435.39H187.636V446.831Z" fill="white"/>
<path d="M231.201 446.831H250.202V435.39H231.201V446.831Z" fill="white"/>
<path d="M122.29 446.831H141.29V435.39H122.29V446.831Z" fill="white"/>
</g>
<g opacity="0.3">
<path d="M165.853 460.863H206.637V449.422H165.853V460.863Z" fill="white"/>
<path d="M209.418 460.863H250.201V449.422H209.418V460.863Z" fill="white"/>
<path d="M122.289 460.863H163.073V449.422H122.289V460.863Z" fill="white"/>
</g>
<g opacity="0.3">
<path d="M144.072 474.894H184.855V463.453H144.072V474.894Z" fill="white"/>
<path d="M187.636 474.894H228.42V463.453H187.636V474.894Z" fill="white"/>
<path d="M231.201 474.894H250.202V463.453H231.201V474.894Z" fill="white"/>
<path d="M122.29 474.894H141.29V463.453H122.29V474.894Z" fill="white"/>
</g>
<path d="M547.973 433.213C547.957 432.738 546.32 385.503 538.471 378.045C530.86 370.813 522.12 377.779 521.752 378.078L520.884 377.062C520.984 376.981 530.939 369.044 539.415 377.095C547.652 384.921 549.262 431.205 549.326 433.171L547.973 433.213Z" fill="#263238"/>
<path d="M548.65 442.505C548.593 441.939 543.272 385.745 564.279 362.184L565.3 363.052C544.671 386.189 549.942 441.817 549.997 442.376L548.65 442.505Z" fill="#263238"/>
<path d="M547.996 436.56L546.645 436.473C546.688 435.838 550.752 372.645 535.376 358.825L536.292 357.852C552.142 372.097 548.172 433.935 547.996 436.56Z" fill="#263238"/>
<path d="M550 436.522L548.646 436.511C548.661 434.77 549.154 393.774 561.092 387.09C563.757 385.596 566.367 385.351 568.849 386.351C576.077 389.271 579.653 401.82 579.802 402.353L578.495 402.702C578.461 402.578 574.945 390.245 568.331 387.574C566.258 386.738 564.047 386.96 561.765 388.237C550.497 394.548 550.004 436.104 550 436.522Z" fill="#263238"/>
<path d="M545.363 436.554L544.011 436.478C544.03 436.156 545.807 404.131 536.969 392.858C534.838 390.139 532.524 388.859 530.091 389.011C524.326 389.404 519.478 397.668 519.431 397.751L518.252 397.1C518.463 396.735 523.502 388.135 529.995 387.692C532.921 387.502 535.619 388.96 538.044 392.055C547.187 403.717 545.441 435.22 545.363 436.554Z" fill="#263238"/>
<path d="M547.181 440.915C546.94 437.804 541.394 364.611 551.163 351.699L552.252 352.485C542.779 365.006 548.473 440.059 548.531 440.814L547.181 440.915Z" fill="#263238"/>
<path d="M571.48 393.823C571.48 393.823 565.628 395.932 567.368 400.909C569.108 405.887 587.614 414.079 587.614 414.079C587.614 414.079 595.365 407.137 588.247 395.847C581.129 384.556 571.638 390.261 571.48 393.823Z" fill="#FF0266"/>
<path opacity="0.2" d="M571.48 393.823C571.48 393.823 565.628 395.932 567.368 400.909C569.108 405.887 587.614 414.079 587.614 414.079C587.614 414.079 595.365 407.137 588.247 395.847C581.129 384.556 571.638 390.261 571.48 393.823Z" fill="white"/>
<path d="M546.037 384.348C546.037 384.348 552.269 384.093 552.623 389.341C552.978 394.59 539.122 409.11 539.122 409.11C539.122 409.11 529.234 405.617 531.358 392.519C533.481 379.423 544.488 381.12 546.037 384.348Z" fill="#FF0266"/>
<path opacity="0.2" d="M546.037 384.348C546.037 384.348 552.269 384.093 552.623 389.341C552.978 394.59 539.122 409.11 539.122 409.11C539.122 409.11 529.234 405.617 531.358 392.519C533.481 379.423 544.488 381.12 546.037 384.348Z" fill="white"/>
<path d="M540.76 359.224C540.76 359.224 544.916 358.788 544.581 356.314C544.247 353.841 528.43 347.476 519.096 357.768C519.096 357.768 525.072 367.799 533.71 367.93C542.349 368.062 540.76 359.224 540.76 359.224Z" fill="#FF0266"/>
<path opacity="0.2" d="M540.76 359.224C540.76 359.224 544.916 358.788 544.581 356.314C544.247 353.841 528.43 347.476 519.096 357.768C519.096 357.768 525.072 367.799 533.71 367.93C542.349 368.062 540.76 359.224 540.76 359.224Z" fill="white"/>
<path d="M548.503 353.218C548.503 353.218 544.74 354.995 543.685 352.723C542.63 350.451 552.609 336.875 566.101 340.786C566.101 340.786 566.458 352.387 559.198 356.964C551.939 361.54 548.503 353.218 548.503 353.218Z" fill="#FF0266"/>
<path opacity="0.2" d="M548.503 353.218C548.503 353.218 544.74 354.995 543.685 352.723C542.63 350.451 552.609 336.875 566.101 340.786C566.101 340.786 566.458 352.387 559.198 356.964C551.939 361.54 548.503 353.218 548.503 353.218Z" fill="white"/>
<path d="M528.83 391.822C528.83 391.822 531.698 389.559 528.603 388.455C525.508 387.35 510.323 387.663 510.165 402.363C510.165 402.363 527.851 405.236 530.041 399.636C532.229 394.038 528.83 391.822 528.83 391.822Z" fill="#FF0266"/>
<path opacity="0.2" d="M528.83 391.822C528.83 391.822 531.698 389.559 528.603 388.455C525.508 387.35 510.323 387.663 510.165 402.363C510.165 402.363 527.851 405.236 530.041 399.636C532.229 394.038 528.83 391.822 528.83 391.822Z" fill="white"/>
<path d="M564.896 358.856C564.896 358.856 562.028 356.593 565.123 355.488C568.218 354.384 583.403 354.697 583.56 369.397C583.56 369.397 565.875 372.269 563.685 366.67C561.496 361.071 564.896 358.856 564.896 358.856Z" fill="#FF0266"/>
<path opacity="0.2" d="M564.896 358.856C564.896 358.856 562.028 356.593 565.123 355.488C568.218 354.384 583.403 354.697 583.56 369.397C583.56 369.397 565.875 372.269 563.685 366.67C561.496 361.071 564.896 358.856 564.896 358.856Z" fill="white"/>
<path d="M555.545 370.696C555.545 370.696 555.293 367.945 557.565 369.024C559.837 370.102 567.754 378.447 559.547 386.366C559.547 386.366 548.501 378.372 550.492 374.209C552.485 370.047 555.545 370.696 555.545 370.696Z" fill="#FF0266"/>
<path opacity="0.2" d="M555.545 370.696C555.545 370.696 555.293 367.945 557.565 369.024C559.837 370.102 567.754 378.447 559.547 386.366C559.547 386.366 548.501 378.372 550.492 374.209C552.485 370.047 555.545 370.696 555.545 370.696Z" fill="white"/>
<path d="M526.267 374.615C526.267 374.615 527.981 372.42 525.471 372.148C522.961 371.875 511.709 374.81 514.33 385.785C514.33 385.785 528.037 384.778 528.625 380.219C529.211 375.661 526.267 374.615 526.267 374.615Z" fill="#FF0266"/>
<path opacity="0.2" d="M526.267 374.615C526.267 374.615 527.981 372.42 525.471 372.148C522.961 371.875 511.709 374.81 514.33 385.785C514.33 385.785 528.037 384.778 528.625 380.219C529.211 375.661 526.267 374.615 526.267 374.615Z" fill="white"/>
<path d="M572.574 477.262H525.544L520.471 426.945H577.647L572.574 477.262Z" fill="#FF0266"/>
<path opacity="0.2" d="M572.574 477.262H525.544L520.471 426.945H577.647L572.574 477.262Z" fill="black"/>
<path d="M580.158 421.393H517.959V432.495H580.158V421.393Z" fill="#FF0266"/>
<path d="M124.701 431.481C124.701 431.481 119.376 401.946 126.408 372.981C133.441 344.017 131.566 337.997 137.458 331.979C137.458 331.979 137.19 337.005 137.458 344.568C137.726 352.131 135.851 371.886 135.851 391.713C135.85 411.538 137.118 441.215 124.701 431.481Z" fill="#FF0266"/>
<path opacity="0.2" d="M124.701 431.481C124.701 431.481 119.376 401.946 126.408 372.981C133.441 344.017 131.566 337.997 137.458 331.979C137.458 331.979 137.19 337.005 137.458 344.568C137.726 352.131 135.851 371.886 135.851 391.713C135.85 411.538 137.118 441.215 124.701 431.481Z" fill="white"/>
<path d="M120.853 434.744C120.853 434.744 116.567 435.339 112.639 414.976C108.711 394.614 105.783 382.4 100.284 369.49C94.7842 356.579 97.7738 339.48 97.7738 339.48C97.7738 339.48 99.4271 348.902 104.07 356.229C108.713 363.558 115.14 377.482 120.854 393.725C126.565 409.967 129.78 432.649 120.853 434.744Z" fill="#FF0266"/>
<path d="M132.708 430.708C127.336 428.067 135.315 392.389 144.689 377.886C154.062 363.384 152.626 354.016 156.29 351.371C156.29 351.371 157.178 354.484 156.29 362.075C155.401 369.664 155.669 382.194 150.045 393.726C144.42 405.257 142.957 435.745 132.708 430.708Z" fill="#FF0266"/>
<path opacity="0.3" d="M120.853 434.744C120.853 434.744 116.567 435.339 112.639 414.976C108.711 394.614 105.783 382.4 100.284 369.49C94.7842 356.579 97.7738 339.48 97.7738 339.48C97.7738 339.48 99.4271 348.902 104.07 356.229C108.713 363.558 115.14 377.482 120.854 393.725C126.565 409.967 129.78 432.649 120.853 434.744Z" fill="white"/>
<path opacity="0.3" d="M132.708 430.708C127.336 428.067 135.315 392.389 144.689 377.886C154.062 363.384 152.626 354.016 156.29 351.371C156.29 351.371 157.178 354.484 156.29 362.075C155.401 369.664 155.669 382.194 150.045 393.726C144.42 405.257 142.957 435.745 132.708 430.708Z" fill="white"/>
<path d="M124.701 431.481C125.738 424.606 106.657 407.48 102.64 403.751C98.6228 400.023 94.0693 389.554 94.0693 389.554C94.0693 389.554 93.1716 402.59 97.7725 407.849C102.372 413.108 108.141 418.971 111.685 427.424C115.228 435.878 123.191 441.477 124.701 431.481Z" fill="#FF0266"/>
<path d="M133.44 433.389C127.046 429.077 135.736 421.429 144.23 414.128C152.723 406.827 153.697 400.989 156.29 395.925C158.883 390.861 164.986 389.553 164.986 389.553C164.986 389.553 161.199 393.66 160.576 395.925C159.954 398.19 150.044 417.034 147.634 424.623C145.225 432.214 139.064 437.182 133.44 433.389Z" fill="#FF0266"/>
<path opacity="0.4" d="M124.701 431.481C125.738 424.606 106.657 407.48 102.64 403.751C98.6228 400.023 94.0693 389.554 94.0693 389.554C94.0693 389.554 93.1716 402.59 97.7725 407.849C102.372 413.108 108.141 418.971 111.685 427.424C115.228 435.878 123.191 441.477 124.701 431.481Z" fill="white"/>
<path opacity="0.4" d="M133.44 433.389C127.046 429.077 135.736 421.429 144.23 414.128C152.723 406.827 153.697 400.989 156.29 395.925C158.883 390.861 164.986 389.553 164.986 389.553C164.986 389.553 161.199 393.66 160.576 395.925C159.954 398.19 150.044 417.034 147.634 424.623C145.225 432.214 139.064 437.182 133.44 433.389Z" fill="white"/>
<path d="M152.387 477.262H105.358L100.283 426.946H157.461L152.387 477.262Z" fill="#FF0266"/>
<path opacity="0.2" d="M152.387 477.262H105.358L100.283 426.946H157.461L152.387 477.262Z" fill="black"/>
<path d="M159.971 421.394H97.7725V432.496H159.971V421.394Z" fill="#FF0266"/>
</svg>
